<svg version="1.1" height= "40px" width="40px" viewBox="0.0 0.0 337.0 337.0" fill="none" stroke="none" stroke-linecap="square" stroke-miterlimit="10" xmlns:xlink="http://www.w3.org/1999/xlink" xmlns="http://www.w3.org/2000/svg">
  <clipPath id="p.0">
    <path d="m0 0l337.0 0l0 337.0l-337.0 0l0 -337.0z" clip-rule="nonzero"/>
  </clipPath>
  <g clip-path="url(#p.0)">
    <path fill="#000000" fill-opacity="0.0" d="m0 0l337.0 0l0 337.0l-337.0 0z" fill-rule="evenodd"/>
    <path fill="#ea9999" d="m18.503942 164.40683l0 0c0 -81.39025 65.97983 -147.37009 147.37009 -147.37009l0 0c39.084976 0 76.56912 15.526445 104.20639 43.163696c27.637238 27.637249 43.163696 65.1214 43.163696 104.20639l0 0c0 81.39024 -65.97984 147.37009 -147.37009 147.37009l0 0c-81.39025 0 -147.37009 -65.97984 -147.37009 -147.37009z" fill-rule="evenodd"/>
    <path fill="#5b3c1f" d="m69.17738 241.66667c-1.9741898 4.606735 -4.605858 13.819763 -3.9475098 17.110245c0.6583557 3.2904358 5.4846954 3.7292175 7.897644 2.6325378c2.4129486 -1.0966797 5.2637787 -6.360901 6.5800476 -9.212601c1.3162766 -2.851715 0.87882996 -8.775162 1.3175888 -7.897644c0.43875885 0.8775177 1.5345535 9.652664 1.3149567 13.162735c-0.21959686 3.5100708 -3.2909012 5.2650757 -2.6325455 7.897644c0.6583557 2.6325378 3.7305374 7.020111 6.5826797 7.897644c2.8521423 0.87750244 8.994751 0 10.530182 -2.6325684c1.5354385 -2.6325378 -0.22047424 -8.336395 -1.3175812 -13.16272c-1.0971146 -4.8263397 -2.1937943 -11.4077 -5.265091 -15.795273c-3.0713043 -4.3875885 -9.652672 -10.530182 -13.162735 -10.530182c-3.5100555 0 -5.9234467 5.9234467 -7.8976364 10.530182z" fill-rule="evenodd"/>
    <path fill="#000000" fill-opacity="0.0" d="m315.46457 212.03412l-48.850403 5.2913513" fill-rule="evenodd"/>
    <path stroke="#783f04" stroke-width="2.0" stroke-linejoin="round" stroke-linecap="butt" d="m315.46457 212.03412l-48.850403 5.2913513" fill-rule="evenodd"/>
    <path fill="#fce5cd" d="m240.25197 234.5538l0 0c0 -13.393982 10.857971 -24.251968 24.251968 -24.251968l0 0c6.4320374 0 12.600616 2.5551147 17.148743 7.103241c4.548126 4.548126 7.103241 10.716705 7.103241 17.148727l0 0c0 13.393997 -10.858002 24.251984 -24.251984 24.251984l0 0c-13.393997 0 -24.251968 -10.857986 -24.251968 -24.251984z" fill-rule="evenodd"/>
    <path fill="#fce5cd" d="m35.160107 225.32545l0 0c0 -13.393982 10.857975 -24.251968 24.251968 -24.251968l0 0c6.4320183 0 12.600605 2.5551147 17.148731 7.103241c4.548126 4.548126 7.1032333 10.716705 7.1032333 17.148727l0 0c0 13.393997 -10.857971 24.251968 -24.251965 24.251968l0 0c-13.393993 0 -24.251968 -10.857971 -24.251968 -24.251968z" fill-rule="evenodd"/>
    <path fill="#fce5cd" d="m56.02362 179.70079l0 0c0 -61.473213 49.833885 -111.30709 111.30708 -111.30709l0 0c29.520477 0 57.83188 11.726967 78.70599 32.60109c20.87413 20.87413 32.60109 49.185524 32.60109 78.706l0 0c0 61.473206 -49.833878 111.30708 -111.30708 111.30708l0 0c-61.473198 0 -111.30708 -49.833878 -111.30708 -111.30708z" fill-rule="evenodd"/>
    <path fill="#ea9999" d="m204.45264 226.59843l0 0l0 0c3.6336823 0 7.1185303 -1.4434662 9.687927 -4.012863c2.5693817 -2.569397 4.012863 -6.054245 4.012863 -9.687927l0 -16.34645c0 -1.2207031E-4 -1.0681152E-4 -2.2888184E-4 -2.2888184E-4 -2.2888184E-4l-27.401352 2.2888184E-4l0 0c-1.2207031E-4 0 -2.2888184E-4 1.0681152E-4 -2.2888184E-4 2.2888184E-4l2.2888184E-4 16.346222l0 0c0 7.566742 6.1340485 13.70079 13.70079 13.70079z" fill-rule="evenodd"/>
    <path fill="#000000" fill-opacity="0.0" d="m194.2511 263.67285l0 0c-18.064499 2.0177917 -34.161087 -9.383087 -35.95276 -25.46457l32.708664 -3.6535492z" fill-rule="evenodd"/>
    <path fill="#000000" fill-opacity="0.0" d="m194.2511 263.67285l0 0c-18.064499 2.0177917 -34.161087 -9.383087 -35.95276 -25.46457" fill-rule="evenodd"/>
    <path stroke="#e06666" stroke-width="3.0" stroke-linejoin="round" stroke-linecap="butt" d="m194.2511 263.67285l0 0c-18.064499 2.0177917 -34.161087 -9.383087 -35.95276 -25.46457" fill-rule="evenodd"/>
    <path fill="#000000" fill-opacity="0.0" d="m196.87401 195.49606l16.661423 0" fill-rule="evenodd"/>
    <path stroke="#b45f06" stroke-width="3.0" stroke-linejoin="round" stroke-linecap="butt" d="m196.87401 195.49606l16.661423 0" fill-rule="evenodd"/>
    <path fill="#000000" fill-opacity="0.0" d="m77.09449 195.49606l0 0c0 -33.076202 26.81356 -59.88977 59.889763 -59.88977l0 0c15.883759 0 31.116943 6.309799 42.34845 17.541306c11.231522 11.231522 17.541306 26.464706 17.541306 42.348465l0 0c0 33.076202 -26.813553 59.88977 -59.889755 59.88977l0 0c-33.076202 0 -59.889763 -26.813568 -59.889763 -59.88977z" fill-rule="evenodd"/>
    <path stroke="#b45f06" stroke-width="3.0" stroke-linejoin="round" stroke-linecap="butt" d="m77.09449 195.49606l0 0c0 -33.076202 26.81356 -59.88977 59.889763 -59.88977l0 0c15.883759 0 31.116943 6.309799 42.34845 17.541306c11.231522 11.231522 17.541306 26.464706 17.541306 42.348465l0 0c0 33.076202 -26.813553 59.88977 -59.889755 59.88977l0 0c-33.076202 0 -59.889763 -26.813568 -59.889763 -59.88977z" fill-rule="evenodd"/>
    <path fill="#000000" fill-opacity="0.0" d="m213.5433 195.49606l0 0c0 -28.144775 22.815857 -50.960632 50.960632 -50.960632l0 0c13.5155945 0 26.47763 5.3690643 36.034607 14.926025c9.556976 9.556976 14.926025 22.519012 14.926025 36.034607l0 0c0 28.14479 -22.815857 50.960632 -50.960632 50.960632l0 0c-28.144775 0 -50.960632 -22.815842 -50.960632 -50.960632z" fill-rule="evenodd"/>
    <path stroke="#b45f06" stroke-width="3.0" stroke-linejoin="round" stroke-linecap="butt" d="m213.5433 195.49606l0 0c0 -28.144775 22.815857 -50.960632 50.960632 -50.960632l0 0c13.5155945 0 26.47763 5.3690643 36.034607 14.926025c9.556976 9.556976 14.926025 22.519012 14.926025 36.034607l0 0c0 28.14479 -22.815857 50.960632 -50.960632 50.960632l0 0c-28.144775 0 -50.960632 -22.815842 -50.960632 -50.960632z" fill-rule="evenodd"/>
    <path fill="#000000" d="m146.64427 209.7638l0 0c0 -5.6793976 4.604065 -10.283463 10.283463 -10.283463l0 0c2.7273407 0 5.342987 1.083435 7.2714996 3.011963c1.9285278 1.9285126 3.011963 4.544159 3.011963 7.2714996l0 0c0 5.6793976 -4.604065 10.283463 -10.283463 10.283463l0 0c-5.6793976 0 -10.283463 -4.604065 -10.283463 -10.283463z" fill-rule="evenodd"/>
    <path stroke="#000000" stroke-width="1.0" stroke-linejoin="round" stroke-linecap="butt" d="m146.64427 209.7638l0 0c0 -5.6793976 4.604065 -10.283463 10.283463 -10.283463l0 0c2.7273407 0 5.342987 1.083435 7.2714996 3.011963c1.9285278 1.9285126 3.011963 4.544159 3.011963 7.2714996l0 0c0 5.6793976 -4.604065 10.283463 -10.283463 10.283463l0 0c-5.6793976 0 -10.283463 -4.604065 -10.283463 -10.283463z" fill-rule="evenodd"/>
    <path fill="#000000" d="m250.08421 200.27034l0 0c0 -5.6793976 4.604065 -10.283463 10.283463 -10.283463l0 0c2.727356 0 5.342987 1.083435 7.271515 3.011963c1.9285278 1.9285126 3.011963 4.544159 3.011963 7.2714996l0 0c0 5.6793976 -4.604065 10.283463 -10.283478 10.283463l0 0c-5.6793976 0 -10.283463 -4.604065 -10.283463 -10.283463z" fill-rule="evenodd"/>
    <path stroke="#000000" stroke-width="1.0" stroke-linejoin="round" stroke-linecap="butt" d="m250.08421 200.27034l0 0c0 -5.6793976 4.604065 -10.283463 10.283463 -10.283463l0 0c2.727356 0 5.342987 1.083435 7.271515 3.011963c1.9285278 1.9285126 3.011963 4.544159 3.011963 7.2714996l0 0c0 5.6793976 -4.604065 10.283463 -10.283478 10.283463l0 0c-5.6793976 0 -10.283463 -4.604065 -10.283463 -10.283463z" fill-rule="evenodd"/>
    <path fill="#000000" fill-opacity="0.0" d="m124.5823 160.98148l0 0c1.9755554 -3.0531158 5.0830307 -5.196411 8.638847 -5.958374c3.5558014 -0.76194763 7.2686615 -0.08016968 10.321793 1.8953857l-7.448822 11.51181z" fill-rule="evenodd"/>
    <path fill="#000000" fill-opacity="0.0" d="m124.5823 160.98148l0 0c1.9755554 -3.0531158 5.0830307 -5.196411 8.638847 -5.958374c3.5558014 -0.76194763 7.2686615 -0.08016968 10.321793 1.8953857" fill-rule="evenodd"/>
    <path stroke="#783f04" stroke-width="3.0" stroke-linejoin="round" stroke-linecap="butt" d="m124.5823 160.98148l0 0c1.9755554 -3.0531158 5.0830307 -5.196411 8.638847 -5.958374c3.5558014 -0.76194763 7.2686615 -0.08016968 10.321793 1.8953857" fill-rule="evenodd"/>
    <path fill="#000000" fill-opacity="0.0" d="m59.643368 158.08398l0 11.181107" fill-rule="evenodd"/>
    <path stroke="#783f04" stroke-width="2.0" stroke-linejoin="round" stroke-linecap="butt" d="m59.643368 158.08398l0 11.181107" fill-rule="evenodd"/>
    <path fill="#000000" fill-opacity="0.0" d="m63.694553 158.08398l0 11.181107" fill-rule="evenodd"/>
    <path stroke="#783f04" stroke-width="2.0" stroke-linejoin="round" stroke-linecap="butt" d="m63.694553 158.08398l0 11.181107" fill-rule="evenodd"/>
    <path fill="#000000" fill-opacity="0.0" d="m67.643364 158.08398l0 11.181107" fill-rule="evenodd"/>
    <path stroke="#783f04" stroke-width="2.0" stroke-linejoin="round" stroke-linecap="butt" d="m67.643364 158.08398l0 11.181107" fill-rule="evenodd"/>
    <path fill="#000000" fill-opacity="0.0" d="m72.02362 158.08398l0 11.181107" fill-rule="evenodd"/>
    <path stroke="#783f04" stroke-width="2.0" stroke-linejoin="round" stroke-linecap="butt" d="m72.02362 158.08398l0 11.181107" fill-rule="evenodd"/>
    <path fill="#000000" fill-opacity="0.0" d="m57.99868 170.46474l0 11.181091" fill-rule="evenodd"/>
    <path stroke="#783f04" stroke-width="2.0" stroke-linejoin="round" stroke-linecap="butt" d="m57.99868 170.46474l0 11.181091" fill-rule="evenodd"/>
    <path fill="#000000" fill-opacity="0.0" d="m62.04987 170.46474l0 11.181091" fill-rule="evenodd"/>
    <path stroke="#783f04" stroke-width="2.0" stroke-linejoin="round" stroke-linecap="butt" d="m62.04987 170.46474l0 11.181091" fill-rule="evenodd"/>
    <path fill="#000000" fill-opacity="0.0" d="m65.99868 170.46474l0 11.181091" fill-rule="evenodd"/>
    <path stroke="#783f04" stroke-width="2.0" stroke-linejoin="round" stroke-linecap="butt" d="m65.99868 170.46474l0 11.181091" fill-rule="evenodd"/>
    <path fill="#000000" fill-opacity="0.0" d="m70.37894 170.46474l0 11.181091" fill-rule="evenodd"/>
    <path stroke="#783f04" stroke-width="2.0" stroke-linejoin="round" stroke-linecap="butt" d="m70.37894 170.46474l0 11.181091" fill-rule="evenodd"/>
    <path fill="#000000" fill-opacity="0.0" d="m61.6168 145.74278l0 11.149612" fill-rule="evenodd"/>
    <path stroke="#783f04" stroke-width="2.0" stroke-linejoin="round" stroke-linecap="butt" d="m61.6168 145.74278l0 11.149612" fill-rule="evenodd"/>
    <path fill="#000000" fill-opacity="0.0" d="m65.66929 145.70341l0 11.181107" fill-rule="evenodd"/>
    <path stroke="#783f04" stroke-width="2.0" stroke-linejoin="round" stroke-linecap="butt" d="m65.66929 145.70341l0 11.181107" fill-rule="evenodd"/>
    <path fill="#000000" fill-opacity="0.0" d="m69.6181 145.70341l0 11.181107" fill-rule="evenodd"/>
    <path stroke="#783f04" stroke-width="2.0" stroke-linejoin="round" stroke-linecap="butt" d="m69.6181 145.70341l0 11.181107" fill-rule="evenodd"/>
    <path fill="#000000" fill-opacity="0.0" d="m73.99836 145.70341l0 11.181107" fill-rule="evenodd"/>
    <path stroke="#783f04" stroke-width="2.0" stroke-linejoin="round" stroke-linecap="butt" d="m73.99836 145.70341l0 11.181107" fill-rule="evenodd"/>
    <path fill="#000000" fill-opacity="0.0" d="m59.106293 183.14485l0 11.181107" fill-rule="evenodd"/>
    <path stroke="#783f04" stroke-width="2.0" stroke-linejoin="round" stroke-linecap="butt" d="m59.106293 183.14485l0 11.181107" fill-rule="evenodd"/>
    <path fill="#000000" fill-opacity="0.0" d="m63.157482 183.14485l0 11.181107" fill-rule="evenodd"/>
    <path stroke="#783f04" stroke-width="2.0" stroke-linejoin="round" stroke-linecap="butt" d="m63.157482 183.14485l0 11.181107" fill-rule="evenodd"/>
    <path fill="#000000" fill-opacity="0.0" d="m67.10629 183.14485l0 11.181107" fill-rule="evenodd"/>
    <path stroke="#783f04" stroke-width="2.0" stroke-linejoin="round" stroke-linecap="butt" d="m67.10629 183.14485l0 11.181107" fill-rule="evenodd"/>
    <path fill="#000000" fill-opacity="0.0" d="m60.916164 195.03151l0 11.181091" fill-rule="evenodd"/>
    <path stroke="#783f04" stroke-width="2.0" stroke-linejoin="round" stroke-linecap="butt" d="m60.916164 195.03151l0 11.181091" fill-rule="evenodd"/>
    <path fill="#000000" fill-opacity="0.0" d="m64.967354 195.03151l0 11.181091" fill-rule="evenodd"/>
    <path stroke="#783f04" stroke-width="2.0" stroke-linejoin="round" stroke-linecap="butt" d="m64.967354 195.03151l0 11.181091" fill-rule="evenodd"/>
    <path fill="#000000" fill-opacity="0.0" d="m56.02362 198.20473l21.07087 -2.708664" fill-rule="evenodd"/>
    <path stroke="#b45f06" stroke-width="3.0" stroke-linejoin="round" stroke-linecap="butt" d="m56.02362 198.20473l21.07087 -2.708664" fill-rule="evenodd"/>
    <path fill="#000000" fill-opacity="0.0" d="m76.07579 133.37057l0 11.181107" fill-rule="evenodd"/>
    <path stroke="#783f04" stroke-width="2.0" stroke-linejoin="round" stroke-linecap="butt" d="m76.07579 133.37057l0 11.181107" fill-rule="evenodd"/>
    <path fill="#5b3c1f" d="m59.720676 130.14095c-1.0010109 -5.109741 -5.683651 -12.592491 -6.714573 -18.217224c-1.0309219 -5.6247253 -1.2233849 -13.106087 0.5290489 -15.531151c1.7524338 -2.425064 7.9976006 -0.7142792 9.985561 0.9807739c1.9879608 1.6950455 1.3092117 10.517693 1.9421997 9.189507c0.632988 -1.328186 0.4270172 -13.201469 1.8557205 -17.15863c1.4287109 -3.9571686 4.125 -6.4361877 6.716507 -6.584343c2.591507 -0.14815521 7.7580566 3.4314423 8.832535 5.6954117c1.0744781 2.2639618 -4.3001633 9.547928 -2.3856583 7.888382c1.914505 -1.6595383 8.158615 -12.351997 13.872688 -17.845634c5.714073 -5.493637 11.090111 -10.708313 20.411758 -15.1161995c9.321648 -4.4078827 24.886185 -9.17318 35.518127 -11.331093c10.631943 -2.1579132 17.582886 -2.555294 28.273544 -1.6163864c10.690674 0.93891144 27.786026 6.4205475 35.870453 7.249851c8.084427 0.8292999 8.468674 -0.74378586 12.636093 -2.2740364c4.1674194 -1.5302467 8.097931 -7.1800117 12.368393 -6.9074554c4.2704773 0.2725563 10.471085 5.343128 13.25444 8.542793c2.7833557 3.199665 4.7121735 7.999302 3.445694 10.655193c-1.2664795 2.6558838 -12.016434 4.8190002 -11.04454 5.280136c0.9718933 0.46113586 11.751297 -1.186966 16.8759 -2.5133286c5.1246033 -1.3263702 9.660126 -4.6873856 13.871704 -5.4448624c4.211609 -0.7574692 9.130341 -1.5538216 11.397827 0.90003204c2.2674866 2.4538498 4.5782776 9.812561 2.2070923 13.82309c-2.3711853 4.0105286 -16.03659 8.925346 -16.434204 10.240082c-0.39761353 1.3147278 11.014954 -3.7283554 14.048553 -2.3516922c3.0335999 1.3766556 4.7862244 7.217186 4.1530457 10.611656c-0.6331787 3.3944702 -4.712433 8.53656 -7.952118 9.755165c-3.2397156 1.218605 -11.059021 -3.243248 -11.486084 -2.4435349c-0.42703247 0.79972076 8.24646 3.663681 8.923767 7.2418365c0.6773071 3.5781555 -1.509613 12.87339 -4.859894 14.227104c-3.3502808 1.3537216 -13.025665 -6.618904 -15.241791 -6.1048126c-2.216156 0.5140915 3.2703552 7.563484 1.9450073 9.189354c-1.3253479 1.6258545 -6.421936 3.4673157 -9.897156 0.56581116c-3.4752197 -2.9015045 -10.026474 -18.286484 -10.954193 -17.974846c-0.9277191 0.3116455 6.5954895 16.15879 5.3878937 19.844704c-1.2075958 3.685913 -9.482391 3.6407318 -12.633453 2.2707825c-3.1510468 -1.3699341 -5.1534576 -11.5878525 -6.272873 -10.490463c-1.1194153 1.0973892 2.7224884 14.568924 -0.44363403 17.074814c-3.1661072 2.5058746 -13.192902 0.7542267 -18.55304 -2.0395203c-5.3601227 -2.793747 -11.766983 -15.603493 -13.607712 -14.722954c-1.8407288 0.88053894 5.729431 17.499779 2.5633545 20.006172c-3.1660767 2.5063934 -18.541122 -1.7815857 -21.55986 -4.9677887c-3.0187225 -3.1862183 5.656067 -12.725632 3.447464 -14.149452c-2.208603 -1.4238281 -11.456711 6.340187 -16.699081 5.6064987c-5.2423553 -0.7337036 -12.884766 -6.2400894 -14.755112 -10.008644c-1.8703461 -3.7685547 5.580185 -14.011742 3.5330505 -12.602707c-2.0471344 1.4090347 -9.587036 18.375412 -15.815857 21.056908c-6.2288055 2.681488 -18.347092 -2.5679855 -21.55703 -4.9679565c-3.209938 -2.3999786 2.5627136 -8.930359 2.2974243 -9.431885c-0.2652893 -0.5015335 -2.6373901 3.5095596 -3.8891525 6.422699c-1.25177 2.9131393 -0.9265747 8.577179 -3.62146 11.056122c-2.6948853 2.4789429 -10.780716 1.6497192 -12.547859 3.8175354c-1.7671432 2.1678162 4.6840515 7.482666 1.945015 9.189346c-2.739029 1.7066803 -15.846436 4.006119 -18.379211 1.0507355c-2.5327682 -2.9553833 4.6031265 -18.735458 3.182579 -18.783035c-1.4205475 -0.047576904 -7.5899506 16.066177 -11.705849 18.497574c-4.115906 2.4313965 -10.9427185 -1.1841278 -12.989559 -3.9092102c-2.0468407 -2.7250671 1.7095222 -7.331482 0.70851135 -12.441223z" fill-rule="evenodd"/>
    <path fill="#5b3c1f" d="m115.90595 65.94237c-2.4129486 -1.5358734 4.8276443 -9.43351 6.582672 -13.162731c1.7550354 -3.7292213 1.7537231 -7.677166 3.9475098 -9.212597c2.1937943 -1.5354347 6.8018417 -1.0966759 9.215218 0c2.413391 1.0966759 5.045929 3.508747 5.265091 6.5800514c0.21916199 3.0713043 0.21829224 9.215221 -3.950119 11.847771c-4.1684265 2.6325417 -18.647423 5.4833794 -21.060371 3.947506z" fill-rule="evenodd"/>
  </g>
</svg>